<svg xmlns="http://www.w3.org/2000/svg" viewBox="0 0 200 60" fill="none">
  <rect width="200" height="60" rx="8" fill="#0f1f3d"/>
  <!-- Flame/forge icon -->
  <path d="M22 42 C18 36 16 30 20 24 C22 20 26 18 26 18 C24 24 28 26 28 22 C30 18 34 16 36 14 C34 20 38 22 38 26 C40 22 42 20 44 18 C42 26 48 28 46 36 C44 42 40 46 34 46 C28 46 24 46 22 42 Z" fill="#c8942a"/>
  <path d="M26 42 C24 38 24 34 26 30 C28 26 30 24 30 24 C29 28 31 30 33 28 C33 32 35 34 36 32 C36 36 38 38 36 42 C34 44 30 44 28 44 C27 44 26.5 43 26 42 Z" fill="#f5e0a0"/>
  <!-- Text -->
  <text x="56" y="26" font-family="Georgia, serif" font-size="13" font-weight="bold" fill="#f5e0a0">The Redeemer's</text>
  <text x="56" y="44" font-family="Georgia, serif" font-size="16" font-weight="bold" fill="#c8942a">Forge</text>
</svg>
